# xmcd
#
# Track frame offsets: 
#        150
#        11692
#        23391
#        37946
#        49241
#        65063
#        77867
#        86058
#        97287
#        108765
#
# Disc length: 1569 seconds
#
# Revision: 2
# Processed by: cddbd v1.5.2PL0 Copyright (c) Steve Scherf et al.
# Submitted via: ExactAudioCopy v1.3
#
DISCID=78061f0a
DTITLE=George Strait - Fresh Cut Christmas
DYEAR=2006
DGENRE=Country
TTITLE0=Joy To The World
TTITLE1=We Three Kings
TTITLE2=Silent Night
TTITLE3=Jingle Bells
TTITLE4=O Come, All Ye Faithful
TTITLE5=Up On The Housetop
TTITLE6=We Wish You A Merry Christmas
TTITLE7=O Christmas Tree
TTITLE8=Hark, The Herald Angels Sing
TTITLE9=Deck The Halls
EXTD=YEAR: 2006
EXTT0=
EXTT1=
EXTT2=
EXTT3=
EXTT4=
EXTT5=
EXTT6=
EXTT7=
EXTT8=
EXTT9=
PLAYORDER=
